<?xml version="1.0" standalone="no"?>
<!DOCTYPE svg PUBLIC "-//W3C//DTD SVG 20010904//EN"
 "http://www.w3.org/TR/2001/REC-SVG-20010904/DTD/svg10.dtd">
<svg version="1.0" xmlns="http://www.w3.org/2000/svg"
 width="619.000000pt" height="709.000000pt" viewBox="0 0 619.000000 709.000000"
 preserveAspectRatio="xMidYMid meet">

<g transform="translate(0.000000,709.000000) scale(0.100000,-0.100000)"
fill="#000000" stroke="none">
<path d="M3108 7023 c7 -3 16 -2 19 1 4 3 -2 6 -13 5 -11 0 -14 -3 -6 -6z"/>
<path d="M3148 7023 c6 -2 18 -2 25 0 6 3 1 5 -13 5 -14 0 -19 -2 -12 -5z"/>
<path d="M2999 6953 c-13 -16 -12 -17 4 -4 9 7 17 15 17 17 0 8 -8 3 -21 -13z"/>
<path d="M3210 6915 c0 -26 31 -200 37 -205 3 -3 2 24 -2 60 -4 36 -8 80 -9
98 -2 28 -26 72 -26 47z"/>
<path d="M3180 6865 c1 -11 5 -40 10 -65 4 -25 6 -48 3 -53 -11 -18 -31 16
-37 63 -10 74 -26 72 -26 -4 0 -64 -14 -92 -31 -65 -5 8 -9 37 -9 64 -1 46 -2
49 -15 31 -8 -11 -15 -34 -15 -52 0 -39 -17 -54 -24 -22 -3 13 -7 32 -9 43 -3
11 -5 -1 -6 -27 0 -25 2 -53 5 -62 9 -23 32 -20 40 6 l7 23 8 -23 c10 -26 44
-30 57 -6 8 14 12 14 30 3 17 -11 23 -10 37 1 13 11 16 23 11 55 -4 22 -8 50
-10 63 -5 31 -26 54 -26 27z"/>
<path d="M2952 6810 c0 -14 2 -19 5 -12 2 6 2 18 0 25 -3 6 -5 1 -5 -13z"/>
<path d="M2980 6691 c0 -6 4 -13 10 -16 6 -3 7 1 4 9 -7 18 -14 21 -14 7z"/>
<path d="M3239 6633 l-24 -28 28 24 c25 23 32 31 24 31 -2 0 -14 -12 -28 -27z"/>
<path d="M3010 6646 c0 -2 8 -10 18 -17 15 -13 16 -12 3 4 -13 16 -21 21 -21
13z"/>
<path d="M3134 6500 c0 -52 1 -74 3 -47 2 26 2 68 0 95 -2 26 -3 4 -3 -48z"/>
<path d="M3358 4653 l-3 -58 -275 -7 c-401 -9 -398 -9 -572 -68 -281 -96 -555
-246 -783 -428 -202 -161 -407 -377 -552 -582 -260 -367 -443 -824 -494 -1240
-17 -133 -28 -292 -28 -402 l-1 -107 -42 -5 c-24 -3 -130 -10 -237 -16 -107
-6 -198 -13 -203 -16 -18 -11 -7 -34 17 -35 14 -1 37 -3 53 -4 447 -37 1409
-54 2787 -49 988 3 1769 15 2203 34 123 6 261 10 307 10 l83 0 7 -30 c9 -39
26 -39 19 -1 -6 27 -4 30 27 35 89 13 182 16 195 5 30 -25 4 -99 -34 -99 -7 0
-12 -10 -12 -21 0 -18 -2 -19 -15 -9 -8 7 -15 20 -15 29 -1 17 -23 51 -34 51
-3 0 -6 -9 -6 -20 0 -11 4 -20 9 -20 5 0 7 -9 4 -20 -3 -11 0 -20 6 -20 23 0
10 -18 -21 -28 l-33 -12 40 5 c22 3 52 5 68 5 19 0 27 5 28 18 0 10 3 12 6 5
8 -21 90 -17 102 5 6 9 11 13 11 9 0 -5 7 -2 15 7 11 10 15 36 15 89 l0 74
-82 11 c-46 6 -158 15 -250 18 l-168 7 -1 61 c0 70 -15 313 -23 401 -8 77 -31
202 -63 335 -96 405 -298 812 -561 1130 -88 107 -290 307 -393 391 -261 211
-656 420 -907 479 -50 12 -56 16 -95 76 -34 52 -47 64 -69 64 -26 0 -27 -2
-30 -57z m-294 -382 c10 -11 15 -24 12 -29 -3 -6 2 -8 12 -5 13 3 28 -6 45
-26 14 -17 29 -31 34 -31 18 -1 67 -50 58 -58 -10 -8 -161 -127 -212 -166 -24
-19 -24 -19 -59 15 -25 24 -31 35 -21 42 8 6 7 7 -4 4 -11 -4 -38 16 -78 57
l-61 61 79 54 c44 29 81 52 83 50 2 -1 16 9 32 24 34 32 57 34 80 8z m-529
-12 c5 -14 2 -25 -6 -30 -8 -4 -23 -15 -34 -24 -11 -9 -2 -7 19 6 38 22 39 22
53 3 7 -10 11 -25 8 -33 -3 -9 -3 -12 1 -8 9 9 44 -22 44 -38 0 -17 -78 -67
-92 -59 -6 4 -8 3 -5 -4 8 -11 -69 -72 -90 -72 -7 0 -13 -4 -13 -8 0 -5 -21
-23 -46 -41 -43 -32 -46 -32 -59 -15 -14 18 -16 25 -14 40 0 4 -4 10 -9 13 -5
3 -21 29 -35 58 l-26 51 47 31 47 30 11 -22 c7 -12 10 -25 8 -29 -3 -5 -1 -8
5 -8 6 0 15 -9 21 -21 9 -17 8 -25 -7 -42 -16 -19 -16 -20 -1 -8 10 7 24 11
32 8 9 -4 13 -1 11 6 -7 17 72 70 93 62 9 -3 13 -3 9 1 -4 4 1 17 10 28 17 20
17 20 0 7 -15 -12 -20 -11 -32 5 -8 10 -15 23 -15 27 0 5 -7 15 -15 23 -22 23
-19 31 23 58 46 31 49 31 57 5z m1093 -51 c2 -4 8 -8 14 -8 6 0 26 -12 45 -26
29 -22 32 -28 21 -42 -12 -15 -11 -16 4 -3 16 12 23 10 55 -15 21 -15 39 -29
41 -30 2 -1 -4 -14 -13 -28 -16 -24 -18 -25 -43 -10 -20 12 -23 12 -9 1 9 -8
17 -19 17 -25 0 -13 -90 -112 -101 -112 -5 0 -30 19 -57 43 -42 36 -135 111
-190 154 -14 12 -13 15 8 38 13 14 30 23 38 20 7 -2 11 -1 8 4 -3 4 6 18 19
31 21 20 27 21 42 9 16 -13 17 -12 4 4 -12 15 -11 20 4 37 18 20 18 20 54 -7
20 -15 38 -31 39 -35z m-1188 -7 c9 -17 4 -24 -36 -52 -37 -25 -48 -29 -55
-18 -15 24 -10 36 29 62 45 32 49 32 62 8z m-350 -1 c0 -5 -20 -23 -45 -40
-34 -23 -45 -27 -45 -16 0 9 17 27 38 40 41 27 52 31 52 16z m1983 -42 c28
-20 37 -48 14 -48 -22 0 -81 55 -73 68 8 13 13 11 59 -20z m-1317 1 c19 -21
19 -21 -16 -50 -40 -34 -47 -35 -72 -12 -26 23 -22 38 15 62 40 26 49 26 73 0z
m593 -9 l34 -29 -29 -25 c-16 -14 -31 -26 -34 -26 -3 0 -21 13 -40 30 l-35 29
30 25 c17 14 32 25 35 25 3 0 20 -13 39 -29z m-1259 5 c0 -14 -74 -75 -92 -75
-22 0 -4 33 34 60 46 34 58 37 58 15z m-108 -38 c-6 -7 -30 -23 -52 -36 -41
-23 -42 -23 -31 -2 15 26 85 75 89 61 2 -6 -1 -16 -6 -23z m2068 3 c28 -22 37
-35 33 -50 -5 -20 -7 -20 -32 -5 l-26 16 24 -21 c19 -17 23 -25 15 -38 -16
-25 -26 -23 -67 11 -34 30 -36 34 -23 52 12 17 16 18 32 5 18 -14 18 -14 1 6
-10 12 -15 28 -11 38 8 21 10 21 54 -14z m-1840 -4 c0 -31 -78 -86 -91 -64
-14 21 -11 26 33 58 50 36 58 37 58 6z m-120 -15 c0 -10 -15 -30 -32 -43 -51
-38 -55 -39 -61 -18 -4 15 5 27 36 50 50 35 57 36 57 11z m1812 -7 c41 -29 47
-44 23 -64 -16 -13 -22 -10 -72 33 -17 16 -20 24 -12 38 13 24 16 24 61 -7z
m251 4 c39 -27 47 -37 40 -54 -7 -19 -82 35 -83 59 0 22 5 22 43 -5z m-2274
-40 c-1 -23 -89 -83 -89 -62 0 14 13 28 45 52 35 25 45 27 44 10z m2571 -32
c0 -6 -5 -5 -12 2 -7 7 -16 12 -22 12 -5 0 5 -16 24 -35 19 -19 29 -35 23 -35
-6 0 -16 7 -23 15 -7 8 -17 15 -23 15 -6 0 7 -15 28 -33 21 -18 36 -39 34 -45
-3 -8 -16 -2 -39 16 -28 24 -35 37 -36 69 0 22 -4 45 -9 53 -5 8 4 6 24 -6 17
-10 31 -23 31 -28z m-1732 4 l22 -29 -33 -24 c-53 -40 -57 -40 -83 -16 -13 12
-24 26 -24 31 0 8 78 68 90 68 3 0 16 -13 28 -30z m-998 16 c0 -2 -8 -10 -17
-17 -16 -13 -17 -12 -4 4 13 16 21 21 21 13z m37 -43 c-21 -19 -42 -32 -45
-28 -4 4 11 22 33 40 52 44 61 34 12 -12z m233 25 c0 -16 -15 -33 -50 -56 -50
-32 -50 -32 -50 -9 0 16 14 34 43 55 51 38 57 39 57 10z m1377 -12 l35 -33
-36 -28 -36 -27 -40 32 -41 33 27 28 c35 37 47 36 91 -5z m892 4 c37 -30 37
-31 27 -75 -12 -49 -24 -55 -51 -25 -10 11 -22 20 -26 20 -5 0 7 -15 27 -32
32 -30 34 -35 21 -52 -14 -19 -16 -19 -56 13 -43 34 -49 51 -28 73 6 7 12 19
13 26 2 28 5 32 18 32 7 0 19 -7 26 -16 8 -8 23 -20 34 -25 12 -6 1 7 -23 28
-27 24 -42 44 -37 51 10 17 12 16 55 -18z m-2379 -12 c0 -6 -8 -21 -17 -32
-17 -20 -17 -20 0 -7 15 12 17 11 17 -15 -1 -22 -11 -37 -43 -61 -40 -31 -42
-31 -49 -12 -5 12 -5 26 -1 32 4 7 6 21 4 31 -2 13 11 31 36 52 37 31 53 35
53 12z m2285 -47 c2 -5 -2 -16 -9 -26 -13 -18 -16 -17 -55 14 -43 34 -49 49
-29 69 8 8 20 4 49 -19 21 -17 41 -34 44 -38z m225 -14 c0 -17 -2 -18 -17 -6
-45 34 -63 54 -63 71 0 16 6 14 40 -13 22 -18 40 -41 40 -52z m-2261 46 c10
-19 6 -26 -35 -59 -44 -37 -47 -37 -60 -19 -8 10 -14 22 -14 26 0 6 93 80 96
76 1 -1 6 -12 13 -24z m-449 -12 c-19 -16 -37 -27 -40 -24 -6 6 51 53 65 53 6
0 -6 -14 -25 -29z m2325 -52 c6 -8 -24 -49 -36 -49 -6 0 -28 14 -49 31 -39 32
-39 32 -23 60 l17 28 44 -32 c24 -17 45 -34 47 -38z m515 41 c0 -15 -5 -12
-26 11 -19 22 -19 22 4 10 12 -6 22 -16 22 -21z m-2916 -51 c-10 -11 -28 -26
-39 -31 -14 -8 -12 -2 9 21 33 34 61 44 30 10z m67 -27 c-14 -27 -81 -76 -81
-60 0 20 13 36 50 63 37 27 47 27 31 -3z m997 -74 c-24 -21 -47 -38 -53 -38
-5 0 -22 15 -37 34 l-27 34 46 36 47 36 33 -32 34 -33 -43 -37z m359 70 l33
-32 -37 -38 c-20 -21 -42 -38 -48 -38 -6 0 -27 16 -45 35 l-35 36 40 34 c22
19 44 34 50 35 5 0 24 -14 42 -32z m1543 -45 c0 -9 -13 -4 -35 14 -19 15 -35
37 -35 47 0 17 5 15 35 -14 19 -19 35 -40 35 -47z m51 40 c10 -12 5 -11 -18 6
-18 12 -33 24 -33 27 0 9 37 -15 51 -33z m-1246 -8 l40 -34 -37 -37 -36 -37
-41 32 c-23 18 -41 38 -41 44 0 11 58 66 70 67 3 0 23 -16 45 -35z m-1022 -4
l17 -29 -43 -36 c-24 -20 -49 -36 -54 -36 -13 0 -45 48 -41 60 4 12 81 69 93
70 6 0 18 -13 28 -29z m2132 -42 c4 -5 2 -16 -3 -25 -8 -14 -14 -12 -45 17
-23 21 -37 43 -37 57 0 23 0 23 40 -8 22 -17 42 -36 45 -41z m-751 2 c20 -22
20 -22 -11 -53 l-31 -31 -41 34 c-22 19 -41 38 -41 43 0 6 12 22 26 38 27 27
27 27 53 9 14 -11 35 -29 45 -40z m883 27 c29 -33 40 -53 22 -43 -23 13 -59
48 -59 57 0 15 16 8 37 -14z m-2566 -15 c9 -25 7 -31 -23 -56 -58 -49 -65 -51
-83 -18 -15 30 -15 30 31 66 26 19 51 35 56 35 5 0 13 -12 19 -27z m-557 -18
c-9 -14 -21 -25 -27 -25 -6 0 0 11 13 25 13 14 25 25 27 25 2 0 -4 -11 -13
-25z m2533 -13 l43 -37 -24 -29 -23 -30 -47 38 c-25 21 -46 40 -46 43 0 12 34
53 44 53 6 0 30 -17 53 -38z m633 -51 c0 -10 -12 -3 -35 19 -19 19 -35 41 -35
49 0 10 12 3 35 -19 19 -19 35 -41 35 -49z m-2872 42 c2 -13 -11 -32 -38 -56
-47 -43 -57 -45 -63 -14 -2 16 8 32 37 59 44 40 59 43 64 11z m2550 -74 c1 -8
-4 -23 -12 -34 -15 -19 -16 -19 -57 22 -40 39 -42 44 -31 69 l13 26 42 -35
c23 -19 43 -41 45 -48z m-2804 -20 c-21 -21 -41 -39 -45 -39 -18 0 8 54 40 82
31 27 36 29 39 14 2 -11 -12 -34 -34 -57z m3003 9 c32 -31 45 -78 21 -78 -15
0 -78 68 -78 85 0 12 9 25 19 25 3 0 20 -14 38 -32z m238 12 c10 -11 16 -20
13 -20 -3 0 -13 9 -23 20 -10 11 -16 20 -13 20 3 0 13 -9 23 -20z m-3404 -65
c-20 -23 -31 -30 -31 -20 0 16 51 67 59 59 2 -2 -10 -19 -28 -39z m3356 -7
c18 -18 33 -41 33 -52 0 -17 -4 -16 -34 13 -31 30 -53 71 -38 71 3 0 21 -14
39 -32z m165 -92 c10 -19 8 -18 -16 3 -14 14 -26 29 -26 34 0 13 29 -12 42
-37z m-2323 -692 c-5 -7 -3 -10 9 -10 9 1 37 -21 62 -48 l45 -49 -59 -53 -59
-54 -43 48 c-24 26 -44 52 -44 58 0 7 -7 15 -16 18 -9 3 -12 2 -8 -5 3 -6 -20
-35 -52 -64 l-59 -54 -23 22 c-13 12 -33 37 -45 56 l-21 35 53 45 c28 25 80
74 114 109 l62 63 47 -53 c29 -34 43 -57 37 -64z m913 -5 l111 -110 -49 -50
c-26 -27 -53 -49 -60 -49 -6 0 -34 24 -62 54 l-52 55 -55 -57 -54 -57 -58 58
-58 58 52 45 c29 25 78 72 109 105 32 32 59 59 61 59 2 0 54 -50 115 -111z
m-1747 41 c14 -22 25 -42 25 -45 0 -3 10 -17 23 -31 13 -13 31 -37 40 -53 l17
-29 -50 -54 -50 -53 -25 30 c-14 17 -31 42 -38 58 -12 28 -27 36 -27 15 0 -11
-85 -108 -95 -108 -2 0 -15 21 -29 47 -29 51 -32 44 38 121 l30 33 19 -23 c19
-23 19 -23 2 6 l-17 28 48 49 c27 27 52 49 56 49 4 0 19 -18 33 -40z m2557
-71 c51 -55 95 -105 97 -110 3 -10 -45 -85 -61 -95 -9 -6 -104 95 -100 107 1
5 -2 9 -8 9 -5 0 -10 -6 -10 -12 0 -7 -18 -33 -40 -58 l-39 -45 -50 50 c-28
27 -51 54 -51 60 0 5 22 33 48 62 26 29 60 70 76 93 17 22 33 40 37 40 4 0 49
-45 101 -101z m-3137 11 c5 -28 3 -46 -7 -58 -12 -15 -11 -16 4 -4 14 11 18 7
33 -32 l17 -45 -37 -45 c-20 -25 -41 -43 -46 -41 -4 3 -11 26 -15 50 -6 44
-24 73 -24 40 0 -9 -14 -37 -32 -63 -28 -40 -32 -43 -39 -26 -15 37 -9 75 17
114 15 22 30 37 35 34 5 -3 9 3 9 13 0 20 56 103 70 103 5 0 11 -18 15 -40z
m3714 -21 c39 -49 40 -52 25 -80 -8 -16 -12 -29 -10 -29 3 0 12 12 19 26 l14
27 32 -46 c17 -25 31 -51 31 -58 0 -19 -23 -79 -30 -79 -11 0 -67 83 -72 105
-3 15 -11 4 -31 -40 l-28 -59 -39 44 c-22 25 -39 52 -40 60 0 9 10 31 23 50
13 19 32 56 43 82 10 27 20 48 21 48 1 0 20 -23 42 -51z m401 -136 c0 -12 -4
-24 -8 -27 -13 -8 -42 60 -42 97 l1 32 24 -40 c14 -22 25 -50 25 -62z m-4444
46 c-9 -22 -15 -27 -15 -16 -1 21 18 61 25 54 3 -3 -2 -20 -10 -38z m14 -64
c0 -8 -9 -29 -20 -47 -17 -27 -20 -29 -20 -12 0 32 21 85 31 78 5 -3 9 -12 9
-19z m4400 -15 c15 -30 18 -48 13 -70 l-8 -31 -24 44 c-17 31 -22 52 -17 70 3
15 8 27 11 27 3 0 14 -18 25 -40z m69 -65 l1 -30 -18 30 c-11 18 -16 41 -13
60 l4 30 13 -30 c7 -16 13 -43 13 -60z m-2689 -110 c-30 -30 -59 -55 -65 -55
-7 0 -12 -7 -12 -15 0 -8 4 -12 7 -10 4 3 29 -19 55 -48 27 -28 75 -80 107
-113 32 -34 58 -67 58 -73 0 -6 6 -11 14 -11 7 0 35 -25 61 -56 l48 -56 -56
-56 -57 -57 -57 57 c-51 51 -55 59 -43 75 21 27 2 10 -72 -65 l-68 -67 0 -80
c0 -44 -3 -104 -6 -132 l-7 -53 -108 0 -109 0 0 124 c0 112 2 126 22 152 l22
29 -23 -20 -23 -20 -25 30 c-88 103 -84 100 -96 79 -6 -10 -30 -39 -54 -64
l-43 -45 -49 55 c-35 39 -47 59 -41 70 5 8 56 65 115 125 58 61 127 134 152
163 25 28 52 52 61 52 8 0 12 3 9 7 -4 3 -1 13 6 22 10 14 10 14 -3 4 -13 -10
-23 -2 -62 45 l-47 57 52 53 c28 28 56 52 62 51 5 0 33 -27 60 -59 28 -32 52
-53 54 -46 2 6 26 35 54 64 l52 52 55 -55 55 -55 -55 -55z m701 98 l54 -58 58
60 58 60 49 -55 c27 -30 50 -60 50 -66 0 -6 -24 -34 -54 -62 l-54 -51 111
-113 c61 -62 140 -143 176 -180 l65 -67 -49 -53 c-28 -29 -55 -54 -61 -56 -8
-2 -65 57 -112 118 -2 3 -8 -4 -14 -15 -6 -11 -33 -42 -60 -69 l-48 -49 0
-128 0 -129 -115 0 -115 0 0 130 c0 110 -3 133 -17 148 -10 10 -37 39 -60 65
l-43 46 -56 -59 c-31 -33 -62 -60 -67 -60 -11 0 -107 101 -107 113 0 12 336
347 349 347 17 0 15 2 -49 71 l-59 64 52 53 c28 28 54 52 58 52 3 0 30 -26 60
-57z m-1533 -82 c-62 -72 -82 -90 -92 -84 -6 3 -8 3 -4 -2 4 -4 3 -14 -3 -21
-8 -9 -6 -11 8 -8 12 3 28 -10 51 -41 17 -24 32 -46 32 -49 0 -3 16 -22 35
-43 19 -21 41 -50 48 -65 6 -16 15 -28 18 -28 4 0 28 -25 53 -55 l47 -55 -48
-55 c-26 -30 -51 -55 -55 -55 -7 0 -83 92 -92 113 -5 9 -7 9 -12 0 -14 -30
-89 -113 -99 -110 -7 3 -9 -39 -7 -130 l3 -134 -88 3 -88 3 0 125 0 125 -48
72 c-26 40 -52 75 -58 79 -6 3 -4 -4 5 -17 14 -23 13 -27 -26 -77 -22 -30 -44
-50 -48 -45 -4 4 -19 28 -33 53 l-26 45 36 53 c31 44 39 50 52 39 14 -10 14
-10 3 5 -12 15 -8 24 29 73 24 30 47 55 51 55 5 0 8 6 8 13 0 21 81 108 93
100 7 -4 3 6 -7 22 -11 17 -30 48 -42 70 l-23 40 46 53 46 53 34 -48 c19 -26
31 -54 28 -62 -3 -9 -3 -12 1 -8 4 4 13 2 20 -4 9 -8 11 -6 8 9 -4 12 10 36
41 70 l47 53 39 -53 39 -52 -22 -25z m2385 77 c20 -24 48 -56 62 -73 26 -30
27 -30 21 -5 -4 19 2 34 28 64 40 46 50 44 100 -18 l37 -45 -41 -55 -42 -55
36 -38 c20 -21 42 -50 49 -65 6 -16 16 -28 20 -28 11 0 58 -55 80 -93 9 -18
17 -28 17 -23 0 4 18 -16 41 -44 46 -58 45 -64 -10 -131 l-27 -32 -43 52 c-24
28 -41 57 -38 64 3 7 -3 13 -13 13 -10 0 -15 -6 -13 -16 4 -14 -62 -110 -76
-110 -3 0 -5 -58 -3 -130 l3 -130 -96 0 -96 0 3 134 c2 98 0 132 -9 129 -6 -2
-34 23 -62 57 -28 33 -51 57 -51 53 -1 -4 -23 -33 -50 -63 l-49 -55 -51 50
c-27 27 -50 55 -50 62 0 6 30 45 68 85 37 40 79 88 94 106 15 17 31 32 37 32
6 0 11 6 11 13 0 6 22 36 49 65 l48 53 -59 57 -59 57 43 52 c24 28 46 52 49
52 4 1 23 -18 42 -41z m-3029 -48 c14 -35 14 -37 -20 -83 -19 -26 -39 -45 -43
-42 -5 2 -11 -8 -13 -24 -3 -19 0 -27 7 -25 15 6 49 -70 42 -95 -3 -13 -1 -18
9 -14 8 3 21 -12 34 -38 18 -35 20 -46 10 -67 -10 -23 -10 -24 5 -12 19 15 21
13 55 -51 l19 -36 -36 -53 -35 -53 -29 49 c-16 27 -27 54 -25 61 3 6 -1 14 -9
17 -9 3 -12 0 -9 -8 3 -8 -9 -37 -27 -66 l-32 -52 -18 33 c-10 19 -18 30 -18
24 0 -5 6 -21 14 -35 10 -18 14 -60 15 -148 l0 -123 -52 3 -53 3 4 117 c3 99
0 124 -15 155 -10 21 -18 55 -18 76 0 21 -2 34 -4 28 -2 -6 -8 -9 -12 -6 -5 3
-8 -3 -7 -14 2 -26 -35 -103 -45 -93 -18 18 -20 97 -3 137 l17 40 13 -30 c16
-36 19 -27 4 12 -8 23 -6 36 12 76 25 52 31 51 48 -5 10 -31 9 -42 -4 -70
l-16 -33 20 25 19 24 23 -46 22 -46 -22 -35 c-11 -19 -21 -38 -21 -43 0 -5 9
6 20 24 11 18 25 30 30 27 5 -3 7 0 4 8 -3 8 6 38 21 67 20 40 29 49 39 41 11
-9 12 -6 8 14 -2 14 -7 25 -11 25 -11 0 -43 98 -36 110 3 5 -1 10 -9 10 -8 0
-13 -6 -10 -13 2 -7 -10 -35 -28 -62 l-31 -50 -16 48 c-14 47 -14 50 9 93 26
46 35 53 44 32 3 -7 3 -1 -1 15 -3 16 0 34 8 45 12 15 12 16 -2 4 -14 -11 -18
-7 -28 30 -11 40 -10 47 15 91 14 27 30 45 34 40 11 -12 30 -74 26 -82 -2 -3
3 -12 11 -20 13 -12 15 -11 9 5 -7 23 51 121 64 108 5 -5 16 -25 24 -44z
m3716 -4 c16 -25 30 -47 30 -49 0 -2 17 -22 37 -43 l37 -39 -28 38 -28 39 18
39 c9 22 21 42 25 44 4 3 21 -17 38 -43 l31 -48 -17 -43 c-10 -24 -21 -40 -29
-37 -7 3 -10 -2 -7 -14 3 -10 0 -29 -6 -41 l-12 -24 17 23 17 23 29 -45 c15
-25 28 -50 28 -56 0 -16 -33 -80 -41 -80 -15 0 -70 90 -63 103 4 6 3 9 -1 4
-5 -4 -17 1 -28 10 -20 18 -20 18 -4 -6 9 -14 13 -29 8 -35 -17 -23 -72 -130
-60 -119 10 10 19 2 46 -37 19 -28 31 -56 27 -63 -4 -6 -4 -9 1 -5 4 4 14 3
21 -3 9 -8 11 -6 7 9 -5 20 31 102 46 102 4 0 19 -21 34 -47 l25 -48 -19 -38
c-11 -21 -25 -40 -32 -43 -9 -3 -11 -38 -9 -128 l3 -123 -57 -6 c-32 -3 -61
-4 -66 -1 -11 7 -10 207 1 237 8 19 6 24 -5 23 -9 0 -30 18 -47 42 -28 39 -30
45 -18 65 13 20 13 21 -2 9 -9 -8 -30 -38 -46 -67 -17 -29 -35 -56 -40 -59 -5
-3 -26 17 -46 45 -41 55 -41 61 10 125 20 26 24 27 40 14 17 -14 17 -14 5 6
-13 21 -9 32 42 108 4 6 13 4 24 -5 16 -13 16 -12 4 7 -12 19 -10 27 16 68 16
25 32 46 37 46 13 0 8 30 -5 30 -14 1 -78 81 -78 98 0 16 41 82 51 82 4 0 22
-20 39 -44z m-4084 -103 l-15 -28 -1 32 c0 17 5 44 12 60 l12 28 4 -32 c2 -18
-4 -45 -12 -60z m4500 52 c15 -36 19 -87 7 -99 -4 -4 -17 10 -29 29 -18 31
-20 42 -11 71 6 19 12 34 14 34 2 0 11 -16 19 -35z m73 -80 l0 -40 -20 38
c-15 28 -18 47 -13 70 l7 32 13 -30 c7 -16 13 -48 13 -70z m-4612 43 c-3 -8
-6 -5 -6 6 -1 11 2 17 5 13 3 -3 4 -12 1 -19z m4593 -78 c8 -19 10 -44 5 -67
l-7 -38 -18 40 c-10 23 -15 54 -12 73 5 37 14 35 32 -8z m-4599 -50 c-10 -25
-10 -25 -10 5 -1 17 3 41 7 55 7 25 7 24 10 -5 2 -17 -1 -42 -7 -55z m19 -84
c-13 -37 -13 -36 5 -30 12 5 15 -2 15 -34 0 -23 -5 -53 -11 -69 l-11 -28 -10
25 c-5 14 -7 40 -4 58 3 19 0 42 -6 52 -8 13 -8 30 2 66 14 48 14 48 22 19 4
-17 4 -42 -2 -59z m4564 -21 c-8 -44 -16 -44 -38 1 -14 30 -15 42 -5 72 l12
36 19 -38 c13 -26 17 -47 12 -71z m61 -13 l-7 -27 -15 31 c-11 23 -13 43 -8
70 l8 39 14 -43 c9 -26 12 -54 8 -70z m-4675 21 c-11 -17 -11 -17 -6 0 3 10 7
28 7 40 2 22 2 22 6 0 2 -12 -1 -30 -7 -40z m4386 -24 l26 -42 -23 -48 c-12
-27 -25 -47 -28 -44 -3 2 -17 24 -30 48 -25 45 -25 46 -6 86 10 23 22 41 26
41 5 0 21 -19 35 -41z m194 -16 c14 -32 15 -44 5 -73 -6 -19 -15 -35 -20 -35
-4 0 -14 16 -22 36 -11 30 -12 45 -3 79 13 47 16 46 40 -7z m129 -55 c1 -15
-3 -29 -8 -32 -12 -8 -23 56 -14 79 6 18 7 18 14 -1 4 -10 8 -31 8 -46z m-265
-36 l24 -48 -19 -43 c-21 -48 -31 -46 -59 9 l-20 39 22 46 c12 25 23 45 25 45
1 0 14 -22 27 -48z m100 -10 c17 -38 17 -41 -1 -83 l-20 -44 -21 47 c-20 46
-20 49 -4 87 9 21 19 38 23 36 3 -2 13 -22 23 -43z m-4449 -2 c7 -31 -10 -100
-25 -100 -14 0 -19 64 -8 102 12 42 23 42 33 -2z m4535 -37 c0 -12 -5 -34 -11
-50 l-11 -28 -15 38 c-13 33 -14 45 -3 80 l13 42 13 -30 c7 -16 13 -40 14 -52z
m-4605 -31 l-14 -37 -2 30 c-5 69 9 116 22 72 5 -18 3 -41 -6 -65z m4664 23
c1 -50 -15 -63 -28 -23 -9 26 -9 42 0 64 10 27 12 27 19 9 5 -11 9 -33 9 -50z
m42 -24 l-4 -25 -9 24 c-5 14 -6 36 -2 50 l7 25 6 -25 c4 -14 5 -36 2 -49z
m-4744 22 c-3 -10 -5 -4 -5 12 0 17 2 24 5 18 2 -7 2 -21 0 -30z m4687 -193
l1 -105 -29 -3 -28 -4 3 129 c5 145 14 177 38 123 10 -24 15 -70 15 -140z
m-4672 -13 c-3 -67 -8 -107 -14 -105 -11 4 -12 205 -1 248 7 25 7 25 13 -5 3
-16 4 -79 2 -138z m5248 -167 c0 -37 -4 -52 -16 -57 -26 -10 -42 18 -37 65 4
36 8 42 29 42 22 0 24 -4 24 -50z m-63 -82 c-3 -8 -6 -5 -6 6 -1 11 2 17 5 13
3 -3 4 -12 1 -19z"/>
<path d="M2990 4181 c-40 -28 -59 -36 -67 -29 -28 23 -10 -1 33 -45 41 -42 47
-45 61 -31 30 30 63 46 80 40 14 -6 15 -5 6 5 -10 10 -9 15 5 26 15 13 15 13
-3 4 -29 -13 -83 32 -65 54 18 22 11 18 -50 -24z"/>
<path d="M3564 4183 c18 -22 18 -24 1 -43 -22 -25 -33 -25 -59 -3 -18 16 -18
14 1 -8 19 -20 20 -28 10 -39 -10 -12 -9 -12 5 -1 15 12 23 10 50 -12 18 -14
49 -38 68 -53 27 -21 30 -23 16 -6 -19 22 -19 23 7 50 30 31 33 42 14 42 -7 0
-30 15 -50 34 -20 18 -37 31 -37 28 0 -3 -10 3 -22 14 l-23 19 19 -22z"/>
<path d="M1819 3943 c-13 -16 -12 -17 4 -4 9 7 17 15 17 17 0 8 -8 3 -21 -13z"/>
<path d="M4820 2743 c13 -18 25 -33 27 -33 8 0 -17 38 -33 51 -11 9 -9 2 6
-18z"/>
<path d="M2380 2245 c-35 -35 -67 -62 -72 -59 -5 3 -7 0 -6 -7 2 -8 12 -18 22
-24 11 -5 38 -33 60 -62 41 -51 70 -75 60 -48 -4 9 17 37 50 71 l56 57 -23 26
c-55 60 -82 94 -79 102 4 15 -2 11 -68 -56z"/>
<path d="M3312 2236 l-63 -62 66 -65 65 -66 60 65 60 64 -62 63 -63 63 -63
-62z"/>
<path d="M3210 2216 c0 -2 8 -10 18 -17 15 -13 16 -12 3 4 -13 16 -21 21 -21
13z"/>
<path d="M3519 2203 c-13 -16 -12 -17 4 -4 9 7 17 15 17 17 0 8 -8 3 -21 -13z"/>
<path d="M3080 2106 c0 -2 8 -10 18 -17 15 -13 16 -12 3 4 -13 16 -21 21 -21
13z"/>
<path d="M1583 2310 c14 -24 13 -28 -33 -82 -26 -31 -51 -55 -54 -52 -3 2 -4
1 -1 -3 3 -3 0 -12 -5 -19 -8 -9 -6 -12 7 -10 10 0 31 -19 52 -51 20 -29 38
-52 41 -52 3 0 24 27 48 60 25 33 48 56 54 53 14 -9 5 7 -44 74 -22 29 -36 57
-33 62 4 6 2 9 -4 8 -5 -2 -17 6 -26 17 -16 19 -16 19 -2 -5z"/>
<path d="M1459 2113 c-13 -16 -12 -17 4 -4 16 13 21 21 13 21 -2 0 -10 -8 -17
-17z"/>
<path d="M4169 2433 c-13 -16 -12 -17 4 -4 16 13 21 21 13 21 -2 0 -10 -8 -17
-17z"/>
<path d="M4253 2293 c-7 -2 -13 -9 -13 -15 0 -6 -20 -34 -44 -62 l-44 -52 32
-34 c17 -19 41 -48 54 -64 l23 -30 16 25 c9 13 33 40 52 61 20 20 42 47 50 60
14 23 13 23 -6 5 -20 -18 -22 -17 -68 37 -26 30 -44 60 -40 66 7 11 6 11 -12
3z"/>
<path d="M4825 2196 c10 -14 19 -26 22 -26 7 0 -17 39 -28 46 -6 3 -3 -5 6
-20z"/>
<path d="M4905 1999 c-4 -6 -5 -12 -2 -15 2 -3 7 2 10 11 7 17 1 20 -8 4z"/>
<path d="M4970 1980 c6 -11 13 -20 16 -20 2 0 0 9 -6 20 -6 11 -13 20 -16 20
-2 0 0 -9 6 -20z"/>
<path d="M5851 1634 c0 -11 3 -14 6 -6 3 7 2 16 -1 19 -3 4 -6 -2 -5 -13z"/>
<path d="M5631 1584 c-17 -13 -20 -19 -10 -30 17 -21 26 -17 32 14 7 34 6 35
-22 16z"/>
<path d="M221 1557 c-1 -10 -11 -21 -23 -26 -22 -8 -21 -9 10 -16 18 -4 35 -5
37 -3 2 1 -3 17 -10 33 -9 20 -14 24 -14 12z"/>
<path d="M320 1559 c0 -5 5 -7 10 -4 6 3 10 8 10 11 0 2 -4 4 -10 4 -5 0 -10
-5 -10 -11z"/>
<path d="M5424 1522 c6 -17 -7 -20 -171 -31 -211 -14 -874 -42 -988 -41 -44 0
-348 -4 -675 -10 -802 -13 -2491 -1 -2583 20 -23 5 -58 7 -77 6 -19 -2 -131 3
-249 10 -212 13 -297 13 -144 -1 136 -12 148 -16 151 -53 4 -43 22 -41 22 3
l0 35 63 -5 c163 -12 270 -16 787 -30 791 -20 2140 -13 2900 15 140 5 338 12
440 16 102 4 196 6 209 6 13 -1 51 2 84 8 40 6 65 6 73 0 6 -6 19 -8 28 -4 12
4 16 0 16 -15 0 -12 -4 -21 -10 -21 -5 0 -10 -7 -10 -16 0 -8 4 -13 9 -10 5 3
11 -4 14 -16 5 -18 8 -19 21 -8 18 14 22 65 6 75 -19 12 1 25 36 25 24 0 37
-5 41 -17 4 -10 11 -21 16 -25 7 -4 4 -16 -6 -32 -21 -31 -22 -42 -2 -26 13
11 15 4 15 -57 0 -62 -3 -72 -26 -94 l-26 -24 6 75 7 75 -24 -27 c-14 -15 -27
-25 -30 -22 -2 2 -10 -3 -18 -13 -8 -9 -9 -14 -3 -10 7 4 15 -1 18 -10 4 -9 1
-20 -5 -24 -14 -9 -22 -136 -9 -158 7 -12 9 -7 10 22 0 44 16 49 25 7 7 -32
26 -51 33 -32 7 23 19 2 14 -27 -3 -20 -8 -28 -18 -24 -16 6 -32 -26 -17 -36
6 -3 21 -24 34 -46 19 -34 23 -59 27 -156 2 -68 0 -138 -7 -169 -10 -44 -9
-56 3 -68 11 -11 18 -11 35 -3 14 8 21 8 21 1 0 -17 18 -11 24 7 3 10 4 -6 2
-35 -4 -63 9 -76 29 -30 10 24 14 27 15 13 0 -19 1 -19 18 3 16 21 18 53 16
400 -2 207 -3 418 -4 467 0 50 -1 98 0 107 0 10 10 18 28 21 15 2 -15 1 -67
-1 -80 -4 -95 -3 -103 11 -12 23 -31 22 -24 -1z m50 -49 c-5 -5 -12 -12 -15
-16 -3 -5 -9 -2 -12 7 -5 12 0 16 15 16 12 0 17 -3 12 -7z m13 -90 c-2 -16 -4
-5 -4 22 0 28 2 40 4 28 2 -13 2 -35 0 -50z m64 -103 c9 -30 19 -90 21 -132
l5 -78 -64 0 -63 0 0 38 c0 52 18 147 37 194 22 54 43 46 64 -22z m-161 -105
c-7 -9 -15 -13 -17 -11 -6 6 20 36 26 30 2 -2 -2 -10 -9 -19z m148 -125 l42 0
0 -195 0 -195 -65 0 -64 0 -3 178 c-4 219 -3 226 25 218 12 -3 41 -6 65 -6z"/>
<path d="M5658 1513 c7 -3 16 -2 19 1 4 3 -2 6 -13 5 -11 0 -14 -3 -6 -6z"/>
<path d="M288 1503 c7 -3 16 -2 19 1 4 3 -2 6 -13 5 -11 0 -14 -3 -6 -6z"/>
<path d="M400 1490 c8 -5 24 -10 34 -10 26 0 18 6 -19 14 -22 5 -26 4 -15 -4z"/>
<path d="M643 1380 c0 -25 2 -35 4 -22 2 12 2 32 0 45 -2 12 -4 2 -4 -23z"/>
<path d="M5180 1356 c0 -8 5 -18 10 -21 6 -3 10 3 10 14 0 12 -4 21 -10 21 -5
0 -10 -6 -10 -14z"/>
<path d="M721 1284 c0 -11 3 -14 6 -6 3 7 2 16 -1 19 -3 4 -6 -2 -5 -13z"/>
<path d="M659 1249 c-10 -10 -20 -33 -24 -51 -22 -131 -32 -269 -18 -255 3 4
8 35 10 69 2 35 9 92 16 128 10 55 15 65 35 68 18 3 26 -4 40 -35 14 -32 17
-79 20 -315 l2 -278 -27 0 c-16 0 -45 -3 -65 -6 l-38 -7 -2 84 -2 84 -3 -75
c-2 -41 -2 -84 1 -96 7 -25 132 -108 141 -94 10 16 13 532 4 620 -16 160 -18
168 -46 173 -16 3 -32 -2 -44 -14z"/>
<path d="M4895 1213 c-92 -48 -158 -169 -170 -311 -4 -47 -4 -49 23 -49 15 0
82 -10 150 -23 l122 -24 0 -156 0 -156 -117 -23 c-65 -12 -131 -23 -148 -25
-26 -3 -30 -8 -33 -35 -4 -36 -7 -36 108 -15 47 8 108 19 135 23 206 34 211
36 219 103 20 159 19 155 3 133 -14 -18 -15 -1 -19 180 -4 215 -11 250 -66
323 -50 69 -138 92 -207 55z m55 -55 c29 -39 30 -45 30 -145 0 -96 1 -103 20
-103 16 0 20 -7 20 -30 0 -35 1 -35 -124 -15 -50 8 -104 16 -121 17 -27 3 -30
6 -27 33 4 37 3 36 44 44 l33 7 3 89 c2 88 3 91 34 118 18 15 38 27 45 27 7 0
26 -19 43 -42z m145 -42 c40 -27 53 -112 58 -379 3 -136 2 -249 -2 -251 -3 -2
-32 1 -63 7 l-58 10 -1 251 c0 277 -2 300 -24 352 l-15 37 42 -7 c24 -4 52
-13 63 -20z m-287 -131 c-2 -1 -15 -5 -30 -9 l-27 -6 13 42 c7 24 20 56 27 73
14 29 14 28 17 -34 2 -35 2 -64 0 -66z m205 -7 c4 -29 3 -48 -3 -48 -6 0 -10
23 -10 52 0 62 5 60 13 -4z"/>
<path d="M1229 1191 c-81 -25 -132 -81 -171 -188 -18 -51 -21 -91 -27 -333 -4
-151 -4 -279 0 -284 9 -10 51 -18 273 -50 98 -15 182 -24 187 -21 5 4 9 33 9
66 0 53 3 61 23 69 16 6 18 9 5 9 -22 1 -27 24 -31 141 -3 84 -3 81 -5 -30 0
-69 -1 -140 -1 -158 l-1 -33 -57 6 c-32 3 -69 7 -83 10 -66 11 -107 17 -124
19 -35 4 -39 26 -30 172 l9 139 115 27 c63 15 129 28 147 28 28 0 32 -3 36
-32 3 -18 3 16 0 75 -5 126 -29 217 -72 271 -16 20 -31 41 -33 45 -5 13 -105
61 -125 60 -10 0 -30 -4 -44 -8z m109 -172 l-3 -134 -50 0 -50 0 2 82 c2 61 8
91 24 120 28 51 61 85 71 75 5 -5 7 -69 6 -143z m94 29 c35 -60 68 -211 50
-222 -4 -2 -28 -7 -54 -10 l-48 -7 0 60 c0 34 3 61 8 61 4 0 7 36 7 80 -1 44
2 80 6 80 4 0 18 -19 31 -42z m-227 -38 c-3 -5 -16 -10 -28 -11 -22 -1 -22 -1
1 -7 l23 -7 -21 -17 c-23 -20 -46 -23 -55 -8 -3 6 -15 10 -26 10 -31 0 -22 26
14 38 43 13 100 15 92 2z m12 -122 c-3 -7 -5 -2 -5 12 0 14 2 19 5 13 2 -7 2
-19 0 -25z m-27 13 c0 -9 -34 -21 -62 -21 -31 0 -19 19 15 23 17 2 35 5 40 5
4 1 7 -2 7 -7z m0 -64 c0 -13 -13 -38 -29 -56 -25 -28 -29 -30 -33 -13 -3 11
-18 21 -37 25 -45 9 -38 32 17 50 67 22 82 21 82 -6z m-115 -274 c-3 -21 -11
-42 -17 -48 -7 -7 -9 0 -4 24 3 18 6 40 6 47 0 8 5 14 11 14 8 0 9 -13 4 -37z
m100 -89 c-7 -39 -33 -59 -87 -68 l-38 -7 0 53 1 53 19 -24 c25 -29 42 -23 77
27 24 34 29 36 31 19 2 -11 1 -35 -3 -53z"/>
<path d="M3865 1161 c11 -5 30 -10 41 -10 12 -1 33 -10 46 -21 14 -10 28 -17
30 -14 7 6 58 -54 58 -67 0 -13 -207 -11 -232 2 -18 10 -20 17 -14 60 6 43 4
49 -11 49 -23 0 -113 -42 -154 -72 -42 -30 -139 -178 -101 -155 12 8 556 -13
565 -22 10 -10 9 -543 -1 -552 -4 -4 -92 -12 -197 -18 -104 -6 -238 -14 -297
-18 l-107 -6 -4 39 c-2 26 -4 16 -5 -28 -2 -49 2 -68 11 -68 6 0 156 11 332
25 175 13 324 23 329 22 6 -1 14 29 17 67 4 38 13 72 19 76 9 6 9 9 -1 12 -11
4 -15 53 -19 234 -5 225 -6 231 -33 285 -25 51 -102 136 -145 157 -9 5 -35 13
-57 16 -22 4 -51 9 -65 12 -22 4 -23 3 -5 -5z m40 -144 c83 -5 153 -12 157
-15 4 -4 9 -18 13 -32 l6 -25 -228 3 c-125 1 -247 5 -271 8 l-42 5 30 44 c34
50 91 97 140 117 l35 15 5 -56 5 -56 150 -8z"/>
<path d="M2433 1143 c9 -2 23 -2 30 0 6 3 -1 5 -18 5 -16 0 -22 -2 -12 -5z"/>
<path d="M2490 1140 c8 -5 20 -10 25 -10 6 0 3 5 -5 10 -8 5 -19 10 -25 10 -5
0 -3 -5 5 -10z"/>
<path d="M2302 1123 c-58 -20 -146 -108 -177 -176 -38 -82 -43 -131 -44 -418
l-1 -267 267 -6 c148 -4 304 -7 348 -9 l80 -2 6 55 c7 68 16 90 38 90 13 0 11
4 -6 18 -22 16 -23 24 -26 197 l-2 180 -3 -205 c-1 -113 -5 -221 -8 -240 l-6
-36 -126 3 c-70 1 -203 5 -297 8 l-170 5 -5 83 c-3 45 -3 170 0 277 l5 194 35
7 c19 4 82 10 140 13 192 11 405 28 409 32 8 7 -34 75 -69 112 -32 34 -35 35
-38 16 -3 -23 2 -22 -249 -40 l-93 -7 0 50 c0 46 2 51 33 66 40 20 16 20 -41
0z m-2 -83 c0 -16 -4 -30 -10 -30 -5 0 -10 14 -10 30 0 17 5 30 10 30 6 0 10
-13 10 -30z m60 -45 c47 0 142 4 211 8 l126 8 21 -33 21 -33 -242 -17 c-133
-9 -257 -18 -274 -20 -18 -2 -33 -1 -33 3 0 16 42 105 58 123 16 18 17 17 22
-10 l5 -29 85 0z"/>
<path d="M4517 1133 c-11 -11 -8 -53 4 -53 6 0 8 7 5 16 -3 8 -2 12 4 9 12 -7
13 5 2 23 -5 7 -11 9 -15 5z"/>
<path d="M2590 1110 c20 -13 33 -13 25 0 -3 6 -14 10 -23 10 -15 0 -15 -2 -2
-10z"/>
<path d="M1857 1076 c-3 -7 -1 -19 4 -27 7 -11 9 -11 9 3 0 9 5 18 12 20 8 3
6 7 -4 11 -9 3 -19 0 -21 -7z"/>
<path d="M3210 1057 c0 -14 5 -29 12 -33 7 -5 9 0 6 14 -4 14 -2 19 7 16 7 -3
16 -1 20 5 3 6 2 11 -4 11 -5 0 -16 3 -25 6 -12 5 -16 0 -16 -19z"/>
<path d="M5360 1059 c0 -5 5 -7 10 -4 6 3 10 8 10 11 0 2 -4 4 -10 4 -5 0 -10
-5 -10 -11z"/>
<path d="M5320 1045 c0 -8 5 -15 10 -15 6 0 10 7 10 15 0 8 -4 15 -10 15 -5 0
-10 -7 -10 -15z"/>
<path d="M5240 941 c0 -23 25 -47 35 -31 10 16 -4 50 -21 50 -8 0 -14 -8 -14
-19z"/>
<path d="M614 835 c0 -55 1 -76 3 -47 2 29 2 74 0 100 -2 26 -3 2 -3 -53z"/>
<path d="M5280 880 c0 -5 5 -10 10 -10 6 0 10 5 10 10 0 6 -4 10 -10 10 -5 0
-10 -4 -10 -10z"/>
<path d="M5330 875 c0 -8 7 -15 15 -15 8 0 15 4 15 9 0 5 -7 11 -15 15 -9 3
-15 0 -15 -9z"/>
<path d="M2772 840 c0 -14 2 -19 5 -12 2 6 2 18 0 25 -3 6 -5 1 -5 -13z"/>
<path d="M3491 814 c0 -11 3 -14 6 -6 3 7 2 16 -1 19 -3 4 -6 -2 -5 -13z"/>
<path d="M3483 725 c0 -38 2 -53 4 -32 2 20 2 52 0 70 -2 17 -4 1 -4 -38z"/>
<path d="M5271 752 c-14 -26 -1 -103 21 -126 18 -20 18 -19 18 12 0 17 -5 34
-10 37 -8 5 -7 11 0 20 13 16 4 75 -10 75 -5 0 -14 -8 -19 -18z"/>
<path d="M5430 495 c0 -8 5 -15 10 -15 6 0 10 7 10 15 0 8 -4 15 -10 15 -5 0
-10 -7 -10 -15z"/>
<path d="M5420 410 c-8 -5 -10 -10 -5 -10 6 0 17 5 25 10 8 5 11 10 5 10 -5 0
-17 -5 -25 -10z"/>
<path d="M5284 365 c-17 -13 -16 -14 16 -3 43 14 49 18 24 18 -11 0 -29 -7
-40 -15z"/>
<path d="M755 310 c3 -4 14 -10 25 -13 11 -3 18 -2 15 3 -3 4 -14 10 -25 13
-11 3 -18 2 -15 -3z"/>
<path d="M5130 310 c-18 -12 -2 -12 25 0 13 6 15 9 5 9 -8 0 -22 -4 -30 -9z"/>
<path d="M5000 280 c-8 -5 -10 -10 -5 -10 6 0 17 5 25 10 8 5 11 10 5 10 -5 0
-17 -5 -25 -10z"/>
<path d="M1110 210 c8 -5 20 -10 25 -10 6 0 3 5 -5 10 -8 5 -19 10 -25 10 -5
0 -3 -5 5 -10z"/>
<path d="M4678 213 c7 -3 16 -2 19 1 4 3 -2 6 -13 5 -11 0 -14 -3 -6 -6z"/>
<path d="M1168 198 c5 -5 16 -8 23 -6 8 3 3 7 -10 11 -17 4 -21 3 -13 -5z"/>
<path d="M4578 203 c7 -3 16 -2 19 1 4 3 -2 6 -13 5 -11 0 -14 -3 -6 -6z"/>
<path d="M4618 203 c7 -3 16 -2 19 1 4 3 -2 6 -13 5 -11 0 -14 -3 -6 -6z"/>
<path d="M4485 190 c-13 -6 -15 -9 -5 -9 8 0 22 4 30 9 18 12 2 12 -25 0z"/>
<path d="M1270 180 c8 -5 22 -9 30 -9 10 0 8 3 -5 9 -27 12 -43 12 -25 0z"/>
<path d="M4415 180 c-13 -5 -14 -9 -5 -9 8 0 24 4 35 9 13 5 14 9 5 9 -8 0
-24 -4 -35 -9z"/>
<path d="M1719 127 c5 -5 30 -7 57 -5 l49 3 -57 5 c-31 3 -53 1 -49 -3z"/>
<path d="M3813 123 c9 -2 23 -2 30 0 6 3 -1 5 -18 5 -16 0 -22 -2 -12 -5z"/>
<path d="M3873 123 c9 -2 25 -2 35 0 9 3 1 5 -18 5 -19 0 -27 -2 -17 -5z"/>
<path d="M1838 113 c6 -2 18 -2 25 0 6 3 1 5 -13 5 -14 0 -19 -2 -12 -5z"/>
<path d="M3753 113 c9 -2 23 -2 30 0 6 3 -1 5 -18 5 -16 0 -22 -2 -12 -5z"/>
<path d="M1943 103 c9 -2 23 -2 30 0 6 3 -1 5 -18 5 -16 0 -22 -2 -12 -5z"/>
<path d="M2008 103 c7 -3 16 -2 19 1 4 3 -2 6 -13 5 -11 0 -14 -3 -6 -6z"/>
<path d="M3573 103 c9 -2 23 -2 30 0 6 3 -1 5 -18 5 -16 0 -22 -2 -12 -5z"/>
<path d="M3633 103 c9 -2 23 -2 30 0 6 3 -1 5 -18 5 -16 0 -22 -2 -12 -5z"/>
<path d="M2053 93 c9 -2 25 -2 35 0 9 3 1 5 -18 5 -19 0 -27 -2 -17 -5z"/>
<path d="M2153 93 c20 -2 54 -2 75 0 20 2 3 4 -38 4 -41 0 -58 -2 -37 -4z"/>
<path d="M3220 90 l-95 -6 80 -1 c44 0 125 3 180 7 l100 7 -85 -1 c-47 0 -128
-3 -180 -6z"/>
<path d="M3513 93 c9 -2 23 -2 30 0 6 3 -1 5 -18 5 -16 0 -22 -2 -12 -5z"/>
<path d="M2318 83 c23 -2 61 -2 85 0 23 2 4 4 -43 4 -47 0 -66 -2 -42 -4z"/>
<path d="M2488 83 c23 -2 61 -2 85 0 23 2 4 4 -43 4 -47 0 -66 -2 -42 -4z"/>
<path d="M3017 83 c18 -2 50 -2 70 0 21 2 7 4 -32 4 -38 0 -55 -2 -38 -4z"/>
<path d="M2698 73 c45 -2 119 -2 165 0 45 1 8 3 -83 3 -91 0 -128 -2 -82 -3z"/>
</g>
</svg>
